<svg width="64" height="64" viewBox="0 0 64 64" fill="none" xmlns="http://www.w3.org/2000/svg">
<rect width="64" height="64.0001" fill="black" fill-opacity="0"/>
<path d="M32 64C49.6731 64 64 49.6731 64 32C64 14.3269 49.6731 0 32 0C14.3269 0 0 14.3269 0 32C0 49.6731 14.3269 64 32 64Z" fill="#ADAFDE"/>
<path fill-rule="evenodd" clip-rule="evenodd" d="M11.0308 14.3999C15.7905 11.3506 21.9951 10.8355 27.3818 13.6084C32.7593 16.3789 35.939 21.71 36.229 27.3384C36.23 27.353 36.231 27.3672 36.231 27.3819L36.8516 33.1353C37.8232 30.1538 39.9199 27.5401 42.9287 25.9912C46.9951 23.8931 51.6797 24.2842 55.2705 26.5864C55.062 30.8486 52.6616 34.8887 48.5952 36.9819C44.8999 38.8882 40.6953 38.7398 37.2637 36.9697L40.1685 64H30.9463L34.7905 28.2066C30.2612 30.5039 24.7378 30.6743 19.8799 28.1729C14.4932 25.395 11.3105 20.0488 11.0308 14.3999Z" fill="white"/>
</svg>
